<?xml version="1.0" encoding="utf-8"?>
<svg
xmlns       = "http://www.w3.org/2000/svg"
xmlns:xlink = "http://www.w3.org/1999/xlink"
version     = "1.0"
height      = "800"
width       = "1792"
>


<desc> Info-Template Image
- for Wikimedia Commons - created 01-2014 by Jaybear </desc>


<!-- ## Start: Dev-Comments ##  (File: WP-Template-Info-Icon_06.svg) - - >

Created by:  Jaybear 2014-01-21 10:00
Last Change: Jaybear 2014-01-22 23:00 (Filters for shadows optimized ;-)

http://developer.mozilla.org/en-US/docs/Web/SVG/Tutorial/Gradients

## Given png-Icon:
Circle-Border-Top:     rgb( 56,  93, 138)
Circle-Border-Bottom:  rgb( 56,  93, 138)
Circle-Body-Top:       rgb( 71, 127, 196)
Circle-Body-Bottom:    rgb( 38,  73, 115)

## New svg-Icon Version (5):
Circle-Border-Top:     rgb( 70, 122, 184)
Circle-Border-Bottom:  rgb( 74, 126, 188)
Circle-Body-Top:       rgb(147, 181, 242)
Circle-Body-Bottom:    rgb( 57, 102, 179)

< !- - ## End: Dev-Comments ## -->


<defs id="def_main">

  <linearGradient id="grad-jay-glyph-line-10" x1="0%" y1="0%" x2="0%" y2="100%" spreadMethod="pad">
    <stop offset=  "0%" stop-color="rgb( 62, 116, 179)" stop-opacity="1" />
    <stop offset="100%" stop-color="rgb( 72, 126, 189)" stop-opacity="1" />
  </linearGradient>

  <linearGradient id="grad-jay-glyph-body-10" x1="0%" y1="0%" x2="0%" y2="100%" spreadMethod="pad">
    <stop offset=  "0%" stop-color="rgb(141, 178, 243)" />
    <stop offset= "78%" stop-color="rgb(  0,  54, 146)" />
    <stop offset="100%" stop-color="rgb( 54, 101, 183)" />
  </linearGradient>


  <linearGradient id="grad-glyph-circle-line-10"  x1="0%" y1="0%" x2="0%" y2="100%" spreadMethod="pad">
    <stop offset=  "0%" stop-color="rgb( 56,  93, 138)" stop-opacity="1" />
    <stop offset="100%" stop-color="rgb( 56,  93, 138)" stop-opacity="1" />
  </linearGradient>

  <linearGradient id="grad-glyph-circle-body-10"  x1="0%" y1="0%" x2="0%" y2="100%" spreadMethod="pad">
    <stop offset=  "0%" stop-color="rgb( 71, 127, 196)" stop-opacity="1" />
    <stop offset="100%" stop-color="rgb( 38,  73, 115)" stop-opacity="1" />
  </linearGradient>


  <linearGradient id="grad-jay-glyph-circle-body-1"  x1="0%" y1="0%" x2="0%" y2="100%" spreadMethod="pad">
    <stop offset=  "0%" stop-color="rgb(141, 178, 243)" />
    <stop offset= "78%" stop-color="rgb(  0,  54, 146)" />
    <stop offset="100%" stop-color="rgb( 54, 101, 183)" />
  </linearGradient>


  <filter id="filt-bracket-04" x="-1.00" y="-1.00" width="3.00" height="3.00">
    <feOffset result="offOut" in="SourceGraphic" dx="32.00" dy="32.00" />
    <feColorMatrix result="matrixOut" in="offOut" type="matrix"
      values="0.35  0 0 0 0 0  0.35  0 0 0 0 0  0.35  0 0 0 0 0  0.50 0" />
    <feGaussianBlur result="blurOut" in="matrixOut" stdDeviation="08.00" />
    <feBlend in="SourceGraphic" in2="blurOut" mode="normal" />
  </filter>

  <filter id="filt-bracket-10" x="-1.00" y="-1.00" width="3.00" height="3.00">
    <feOffset result="offOut" in="SourceGraphic" dx="38.00" dy="38.00" />
    <feColorMatrix result="matrixOut" in="offOut" type="matrix"
      values="0.10  0 0 0 0 0  0.10  0 0 0 0 0  0.10  0 0 0 0 0  0.35 0" />
    <feGaussianBlur result="blurOut" in="matrixOut" stdDeviation="18.00" />
    <feBlend in="SourceGraphic" in2="blurOut" mode="normal" />
  </filter>


  <filter id="filt-info-char-5" x="-1.00" y="-1.00" width="3.00" height="3.00">
    <feOffset result="offOut" in="SourceGraphic" dx="16.00" dy="16.00" />
    <feColorMatrix result="matrixOut" in="offOut" type="matrix"
      values="0.35  0 0 0 0 0  0.35  0 0 0 0 0  0.35  0 0 0 0 0  0.50 0" />
    <feGaussianBlur result="blurOut" in="matrixOut" stdDeviation="08.00" />
    <feBlend in="SourceGraphic" in2="blurOut" mode="normal" />
  </filter>

  <filter id="filt-info-char-10" x="-1.00" y="-1.00" width="3.00" height="3.00">
    <feOffset result="offOut" in="SourceGraphic" dx="22.00" dy="22.00" />
    <feColorMatrix result="matrixOut" in="offOut" type="matrix"
       values="0.05  0 0 0 0 0  0.05  0 0 0 0 0  0.08  0 0 0 0 0  0.90 0" />
    <feGaussianBlur result="blurOut" in="matrixOut" stdDeviation="12.00" />
    <feBlend in="SourceGraphic" in2="blurOut" mode="normal" />
  </filter>


  <!-- fill-opacity: 0.92; stroke-opacity: 0.92; -->
  <path id="path-left-bracket"
    style="fill: url(#grad-jay-glyph-body-10); stroke: url(#grad-jay-glyph-line-10);
           stroke-width: 7.00; fill-rule: evenodd;"
  d="
  M  146.00, 400.00

  a  090.00, 090.00,  1, 0, 1,  048.00, 076.00
  a  700.00, 700.00,  1, 0, 1, -003.00, 085.00
  a  700.00, 700.00,  1, 0, 0, -006.00, 085.00
  a  057.00, 045.00,  1, 0, 0,  065.00, 044.00
  l -002.00, 037.00

  a  107.00, 070.00,  1, 0, 1, -121.00,-060.00
  a  090.00, 150.00,  1, 0, 1, -005.00,-100.00
  a  400.00, 500.00,  1, 0, 0,  007.00,-085.00

  a  025.00, 044.00,  1, 0, 0, -014.00,-045.00
  a  130.00, 230.00,  1, 0, 0, -056.00,-019.00
  l  002.00,-037.00
  a  060.00, 040.00,  1, 0, 0,  065.00,-030.00
  a  170.00, 150.00,  1, 0, 0,  003.00,-050.00

  a  900.00, 900.00,  1, 0, 1, -009.00,-120.00
  a  093.00, 096.00,  1, 0, 1,  089.00,-106.00
  a  250.00, 250.00,  1, 0, 1,  041.00,-001.00

  l  001.00, 036.00
  a  060.00, 050.00,  1, 0, 0, -066.00, 050.00
  a  180.00, 180.00,  1, 0, 0, -000.00, 030.00
  a  750.00, 850.00,  1, 0, 0,  008.00, 080.00

  a  950.00, 950.00,  1, 0, 1,  002.00, 050.00
  a  115.00, 100.00,  1, 0, 1, -049.25, 082.10
  "/>

</defs>


<!-- ## Start: Main Objects ##
transform   =  "scale (0.788, 0.788)"
-->
<g id="g_main-objects"
   fill="none" stroke="#000" stroke-width="1.00"
>

  <g id="g_filt_1"
    filter="url(#filt-bracket-10)"
  >
    <use xlink:href="#path-left-bracket" transform="translate (0000.00, 0.00)" />
    <use xlink:href="#path-left-bracket" transform="translate (0250.00, 0.00)" />
  </g>


  <circle cx="884.00" cy="364.00" r="346.00"
    stroke-width="7.00"
    fill-opacity="0.92" stroke-opacity="0.92"
    stroke="url(#grad-glyph-circle-line-10)"
    fill="url(#grad-glyph-circle-body-10)"
    filter="url(#filt-bracket-10)"
  />


  <g id="g_filt_2"
    filter="url(#filt-bracket-10)"
  >
    <use xlink:href="#path-left-bracket" transform="translate (1516.00, 0.00) scale (-1.00, 1.00)" />
    <use xlink:href="#path-left-bracket" transform="translate (1766.00, 0.00) scale (-1.00, 1.00)" />
  </g>

  <g id="g_info-char"
    stroke-width="2.00" fill-rule="evenodd"
    stroke-opacity="0.96" fill-opacity="0.98"
    stroke="#e0e0ff" fill="#ffffff"
    filter="url(#filt-info-char-10)"
  >
    <path id="path-info-char-body"
    d="
    M  784.00, 254.00
    h  150.00  v  300.00
    a  035.00, 028.00,  1, 0, 0,  041.00, 025.00
    v  021.00  h -192.00  v -021.00

    a  035.00, 028.00,  1, 0, 0,  040.00,-024.00
    v -255.00
    a  040.00, 026.00,  1, 0, 0, -039.00,-026.00
    z"/>

    <path id="path-info-char-body"
    d="
    M  876.00, 090.00
    a  063.00, 063.00,  1, 0, 1,  063.00, 060.00
    a  063.00, 060.00,  1, 0, 1, -063.00, 060.00
    a  058.00, 060.00,  1, 0, 1, -058.00,-060.00
    a  058.00, 060.00,  1, 0, 1,  058.00,-060.00
    z"/>
  </g>


</g>
<!-- ## End: Main Objects ## -->


</svg>


